<mxfile host="app.diagrams.net" modified="2023-11-14T08:34:03.637Z" agent="Mozilla/5.0 (Windows NT 10.0; Win64; x64) AppleWebKit/537.36 (KHTML, like Gecko) Chrome/119.0.0.0 Safari/537.36 Edg/119.0.0.0" version="22.1.0" etag="EibXAJgtMNs4Fou9Ll8p" type="github">
  <diagram name="Page-1" id="GzDkK3Wdm-paOA56kU2o">
    <mxGraphModel>
      <root>
        <mxCell id="0" />
        <mxCell id="1" parent="0" />
      </root>
    </mxGraphModel>
  </diagram>
</mxfile>
